<?xml version="1.0" standalone="no"?>
<!DOCTYPE svg PUBLIC "-//W3C//DTD SVG 20010904//EN"
 "http://www.w3.org/TR/2001/REC-SVG-20010904/DTD/svg10.dtd">
<svg version="1.0" xmlns="http://www.w3.org/2000/svg"
 width="1462.000000pt" height="1662.000000pt" viewBox="0 0 1462.000000 1662.000000"
 preserveAspectRatio="xMidYMid meet">
<metadata>
Created by potrace 1.16, written by Peter Selinger 2001-2019
</metadata>
<g transform="translate(0.000000,1662.000000) scale(0.100000,-0.100000)"
fill="#000000" stroke="none">
<path d="M6263 13885 c-166 -45 -306 -164 -408 -345 -64 -115 -156 -276 -303
-530 -91 -158 -129 -225 -212 -370 -20 -36 -65 -114 -100 -175 -35 -60 -74
-130 -88 -155 -14 -25 -31 -52 -38 -60 -7 -8 -29 -44 -49 -80 -21 -36 -51 -87
-66 -115 -16 -27 -43 -75 -60 -105 -16 -30 -50 -89 -74 -130 -24 -41 -69 -120
-100 -175 -66 -117 -105 -184 -205 -355 -40 -69 -84 -145 -97 -170 -13 -25
-41 -74 -63 -110 -21 -36 -54 -92 -73 -125 -19 -33 -49 -85 -66 -115 -51 -86
-98 -166 -209 -358 -57 -97 -111 -190 -121 -207 -10 -16 -68 -118 -128 -225
-61 -107 -150 -262 -198 -345 -48 -82 -105 -194 -127 -248 -34 -85 -40 -112
-45 -200 -6 -121 5 -192 49 -302 52 -132 155 -258 281 -344 47 -32 151 -72
236 -92 28 -6 600 -10 1580 -10 1651 0 1584 -2 1761 50 102 30 272 115 359
181 53 40 188 176 215 217 14 21 32 47 39 58 40 60 86 145 97 180 7 22 18 50
26 62 22 35 55 219 61 342 13 261 -62 519 -210 726 -49 69 -191 209 -262 259
-143 100 -347 179 -507 197 -50 6 -180 9 -289 7 -198 -3 -198 -3 -244 -48 -50
-49 -65 -88 -65 -166 0 -42 6 -61 33 -100 59 -87 57 -86 309 -95 185 -5 236
-10 298 -29 203 -59 392 -234 482 -448 33 -77 33 -77 33 -252 0 -175 0 -175
-36 -256 -86 -192 -217 -329 -394 -410 -29 -13 -100 -33 -158 -44 -103 -19
-153 -19 -1564 -15 -1264 3 -1464 5 -1506 19 -168 52 -249 219 -184 376 13 30
63 123 112 205 48 83 111 191 138 240 27 50 72 126 100 170 55 87 116 193 152
265 13 26 30 52 39 59 8 7 20 28 26 47 7 19 26 56 43 83 18 27 41 64 52 82 50
88 89 157 108 194 11 22 30 54 42 70 13 17 30 46 39 65 9 19 36 69 61 110 24
41 51 90 59 108 9 18 26 47 38 65 13 17 31 48 41 67 9 19 37 69 62 110 25 41
54 93 66 115 12 22 32 52 45 67 12 15 25 41 29 58 4 17 14 34 24 39 10 6 26
29 36 53 10 24 28 57 40 73 20 27 44 71 98 180 11 22 30 54 42 70 12 17 28 44
34 62 7 18 20 38 28 45 8 7 26 35 39 63 13 27 48 91 78 140 30 50 55 95 55
102 1 6 12 24 25 40 13 15 35 51 50 78 15 28 44 80 64 116 20 36 61 111 91
165 30 54 62 108 71 119 10 11 77 124 150 250 73 127 156 270 184 319 76 132
134 161 233 117 30 -14 48 -31 62 -60 20 -39 21 -55 21 -610 0 -347 4 -580 10
-595 10 -26 10 -26 198 -25 104 0 194 4 201 9 11 6 13 126 12 611 -2 736 -1
726 -108 877 -69 98 -197 182 -330 216 -74 19 -200 20 -270 1z"/>
<path d="M6344 11645 c-171 -30 -376 -115 -503 -211 -66 -49 -198 -181 -235
-234 -146 -208 -216 -430 -216 -681 0 -117 22 -265 51 -349 11 -30 26 -76 34
-101 17 -53 70 -148 109 -195 14 -18 26 -37 26 -43 0 -18 212 -225 270 -263
107 -70 273 -139 415 -174 43 -10 129 -15 300 -17 265 -2 275 0 329 63 33 40
41 69 41 152 0 58 -4 71 -31 109 -52 72 -75 79 -254 79 -85 0 -185 5 -221 10
-155 22 -322 99 -417 190 -64 62 -151 184 -177 249 -13 31 -31 74 -40 96 -25
55 -26 309 -2 370 8 22 26 67 39 100 12 33 31 71 41 85 82 116 118 158 166
197 94 74 192 122 294 145 90 20 122 21 1540 25 1567 5 1548 5 1633 -48 50
-31 111 -104 128 -156 35 -103 15 -174 -102 -371 -39 -64 -92 -155 -118 -202
-116 -209 -144 -255 -175 -296 -15 -18 -37 -58 -49 -89 -12 -30 -26 -55 -32
-55 -5 0 -18 -21 -29 -47 -11 -27 -28 -56 -37 -66 -9 -10 -28 -41 -42 -70 -53
-102 -80 -151 -95 -167 -8 -8 -24 -37 -35 -62 -11 -26 -25 -50 -31 -54 -6 -3
-21 -30 -35 -59 -13 -30 -29 -57 -35 -61 -6 -3 -20 -27 -31 -53 -10 -25 -26
-54 -35 -63 -14 -15 -49 -79 -110 -200 -13 -26 -28 -50 -33 -53 -5 -3 -18 -25
-30 -48 -11 -23 -40 -76 -64 -117 -25 -41 -55 -93 -67 -115 -12 -22 -30 -49
-40 -60 -10 -11 -27 -41 -38 -66 -12 -26 -27 -51 -34 -58 -8 -6 -22 -30 -32
-53 -10 -24 -25 -50 -32 -59 -14 -17 -53 -88 -98 -176 -14 -29 -30 -55 -35
-58 -5 -3 -18 -26 -30 -51 -11 -25 -31 -59 -45 -76 -14 -16 -25 -35 -25 -42 0
-7 -17 -39 -39 -72 -21 -32 -57 -95 -80 -139 -24 -44 -48 -87 -56 -95 -7 -8
-25 -37 -39 -65 -15 -27 -35 -63 -44 -80 -99 -173 -129 -227 -149 -266 -12
-25 -30 -52 -39 -60 -9 -7 -27 -36 -40 -64 -13 -27 -42 -79 -64 -115 -22 -36
-50 -84 -61 -107 -11 -23 -24 -45 -29 -48 -8 -5 -56 -88 -104 -181 -47 -92
-97 -151 -144 -173 -47 -22 -48 -22 -97 -4 -35 13 -57 30 -78 59 -28 41 -28
41 -28 620 -1 318 -3 587 -5 597 -5 15 -24 17 -209 17 -204 0 -204 0 -210 -54
-4 -30 -5 -306 -2 -613 5 -622 7 -638 73 -763 94 -180 344 -315 544 -295 76 8
180 42 247 81 68 39 189 159 216 214 13 26 33 60 44 76 11 16 28 45 37 64 8
19 36 69 61 110 25 41 52 89 60 105 7 17 30 55 49 84 20 29 36 58 36 64 0 5
10 24 23 41 13 17 30 45 39 61 22 43 94 171 133 235 18 30 62 106 97 169 121
217 162 288 195 335 22 31 44 70 103 181 17 33 39 69 49 80 10 11 28 40 40 65
12 25 42 79 66 120 25 41 54 93 65 115 12 22 38 69 60 105 21 36 54 92 72 125
19 33 58 100 86 149 29 49 52 92 52 97 0 4 11 21 25 37 14 17 32 47 41 69 9
21 22 45 29 53 7 8 28 42 46 75 67 126 76 141 104 185 15 25 40 63 55 85 15
22 37 60 49 85 29 58 60 115 92 165 26 40 122 205 170 293 103 187 210 374
287 502 12 19 33 56 46 82 14 25 36 63 50 82 13 20 39 75 57 124 32 84 33 93
33 237 1 130 -2 160 -22 225 -33 105 -94 203 -177 285 -84 82 -169 135 -280
173 -80 27 -80 27 -1630 29 -1270 1 -1565 -1 -1631 -12z m473 -2017 c-3 -8 -6
-5 -6 6 -1 11 2 17 5 13 3 -3 4 -12 1 -19z"/>
<path d="M3422 5530 c-70 -25 -147 -73 -200 -124 -50 -47 -116 -151 -107 -166
4 -7 234 -10 670 -10 773 0 680 -21 721 160 39 175 106 155 -506 157 -495 2
-528 1 -578 -17z"/>
<path d="M4752 5537 c-12 -14 -72 -251 -72 -284 0 -17 6 -23 23 -23 731 -2
898 -6 907 -20 5 -8 10 -36 10 -62 0 -85 17 -82 -510 -88 -455 -5 -455 -5
-477 -49 -12 -24 -27 -69 -33 -100 -19 -99 -90 -413 -117 -514 -13 -54 -22
-109 -19 -122 6 -24 7 -24 176 -27 94 -2 183 0 198 4 48 13 61 38 81 154 16
92 32 154 78 307 3 9 15 19 27 22 11 3 179 6 371 7 342 3 351 4 385 25 19 12
52 32 73 43 114 62 190 185 227 365 24 118 24 129 3 194 -21 66 -64 113 -137
151 -58 30 -58 30 -621 30 -442 0 -565 -3 -573 -13z"/>
<path d="M6320 5535 c-14 -17 -81 -286 -74 -297 3 -5 288 -8 633 -8 489 0 631
3 644 13 23 16 88 277 74 295 -7 9 -147 12 -637 12 -548 0 -629 -2 -640 -15z"/>
<path d="M7757 5523 c-19 -37 -70 -271 -62 -283 4 -6 237 -10 640 -10 594 0
635 1 643 18 5 9 15 46 22 82 7 36 22 96 33 133 18 59 19 69 7 77 -9 6 -275
10 -642 10 -627 0 -627 0 -641 -27z"/>
<path d="M9213 5538 c-27 -34 -46 -88 -64 -184 -11 -57 -17 -109 -14 -114 4
-6 168 -10 440 -10 507 0 505 0 505 -83 0 -20 -9 -70 -20 -110 -10 -39 -29
-115 -40 -167 -11 -52 -30 -130 -41 -173 -20 -71 -25 -79 -66 -107 -44 -30
-44 -30 -259 -30 -214 0 -214 0 -224 26 -14 36 -12 80 4 112 20 38 80 326 73
346 -6 14 -32 16 -207 16 -236 0 -209 23 -265 -227 -20 -87 -44 -185 -55 -218
-10 -33 -26 -103 -35 -155 -8 -52 -20 -107 -26 -121 -6 -15 -9 -40 -7 -55 3
-29 3 -29 538 -32 331 -1 556 2 590 8 87 16 158 56 236 134 81 82 106 137 149
336 14 63 48 207 76 320 57 229 59 273 19 354 -27 53 -60 85 -124 119 -41 22
-45 22 -607 25 -451 2 -568 0 -576 -10z"/>
<path d="M3091 5051 c-22 -14 -25 -93 -7 -149 12 -36 32 -64 71 -101 30 -28
55 -52 57 -53 2 -1 160 -4 351 -7 348 -6 348 -6 375 -54 27 -48 27 -48 -12
-82 -22 -18 -53 -36 -69 -39 -16 -3 -220 -6 -453 -6 -490 0 -434 16 -479 -131
-16 -53 -25 -102 -23 -130 3 -44 3 -44 573 -44 641 0 597 -5 718 79 128 90
172 172 230 428 14 59 1 105 -50 179 -30 42 -52 61 -102 87 -64 32 -64 32
-615 32 -303 0 -557 -4 -565 -9z"/>
<path d="M6217 5046 c-23 -23 -34 -61 -72 -241 -40 -188 -88 -385 -104 -428
-6 -16 -11 -50 -11 -77 0 -44 3 -50 24 -56 14 -3 29 -3 34 0 6 3 276 6 600 6
660 0 612 -5 632 73 6 23 17 62 25 87 23 76 27 108 15 129 -11 21 -17 21 -394
21 -384 0 -384 0 -410 31 -32 38 -32 50 0 105 26 44 26 44 372 44 191 0 353 4
360 8 15 10 72 231 72 280 0 32 0 32 -564 32 -473 0 -567 -2 -579 -14z"/>
<path d="M7662 5048 c-22 -28 -62 -154 -77 -244 -8 -51 -21 -110 -29 -131 -8
-21 -20 -65 -26 -98 -6 -33 -23 -102 -36 -152 -13 -51 -24 -111 -24 -133 0
-40 0 -40 624 -40 624 0 624 0 649 30 36 42 72 214 53 252 -12 23 -12 23 -398
28 -299 4 -390 8 -400 18 -7 7 -13 35 -13 62 0 37 5 54 24 74 24 26 24 26 368
26 343 0 343 0 358 24 22 33 66 214 63 256 -3 35 -3 35 -564 38 -441 2 -564
-1 -572 -10z"/>
</g>
</svg>
